<?xml version="1.0" encoding="UTF-8" standalone="no"?>
<!-- Created with Inkscape (http://www.inkscape.org/) -->

<svg
   width="106.48099mm"
   height="82.235001mm"
   viewBox="0 0 106.48099 82.235001"
   version="1.1"
   id="svg1"
   xml:space="preserve"
   xmlns:xlink="http://www.w3.org/1999/xlink"
   xmlns="http://www.w3.org/2000/svg"
   xmlns:svg="http://www.w3.org/2000/svg"><defs
     id="defs1"><linearGradient
       id="linearGradient35"><stop
         style="stop-color:#b4b4b4;stop-opacity:1;"
         offset="0"
         id="stop34" /><stop
         style="stop-color:#9c9c9c;stop-opacity:1;"
         offset="0.63133597"
         id="stop35" /></linearGradient><linearGradient
       id="swatch19"><stop
         style="stop-color:#ffffff;stop-opacity:1;"
         offset="0"
         id="stop19" /></linearGradient><filter
       style="color-interpolation-filters:sRGB"
       id="filter15"
       x="-0.05451302"
       y="-0.072998849"
       width="1.109026"
       height="1.1459977"><feGaussianBlur
         stdDeviation="2.099872"
         id="feGaussianBlur15" /></filter><clipPath
       clipPathUnits="userSpaceOnUse"
       id="clipPath19"><use
         x="0"
         y="0"
         xlink:href="#g18"
         id="use19" /></clipPath><filter
       style="color-interpolation-filters:sRGB"
       id="filter21"
       x="-0.063866206"
       y="-0.08552378"
       width="1.1277324"
       height="1.1710476"><feGaussianBlur
         stdDeviation="1.7309954"
         id="feGaussianBlur21" /></filter><linearGradient
       xlink:href="#linearGradient35"
       id="linearGradient34"
       gradientUnits="userSpaceOnUse"
       x1="94.711906"
       y1="116.51711"
       x2="94.711914"
       y2="213.88919" /></defs><g
     id="layer3"
     transform="matrix(0.46647738,0,0,0.46647738,-6.8717426,-75.07757)"><rect
       style="fill:#000000;fill-opacity:0;stroke:none;stroke-width:42.4945;stroke-dasharray:none;stroke-opacity:1;paint-order:stroke fill markers"
       id="rect36"
       width="228.26616"
       height="176.28937"
       x="14.731158"
       y="160.9458"
       ry="88.144684"
       rx="0" /><g
       id="g36"
       transform="translate(59.938539,64.148747)"><g
         id="g34"
         transform="translate(-25.786216,19.738597)"><path
           id="path30"
           style="mix-blend-mode:normal;fill:#000000;fill-opacity:0.382438;stroke:none;stroke-width:0.286;stroke-dasharray:none;filter:url(#filter15)"
           d="m 63.183447,130.68415 h 63.056943 c 8.1417,0 14.6962,6.55451 14.6962,14.6962 v 39.64557 c 0,8.1417 -6.5545,14.69621 -14.6962,14.69621 H 63.183447 c -8.141697,0 -14.696203,-6.55451 -14.696203,-14.69621 v -39.64557 c 0,-8.14169 6.554506,-14.6962 14.696203,-14.6962 z"
           transform="matrix(1.0356634,0,0,1.0356634,-3.3777477,-5.8917033)" /><path
           id="path31"
           style="fill:#b6b7b7;fill-opacity:1;stroke-width:0.286;stroke-dasharray:none"
           d="m 63.183447,130.68415 h 63.056943 c 8.1417,0 14.6962,6.55451 14.6962,14.6962 v 39.64557 c 0,8.1417 -6.5545,14.69621 -14.6962,14.69621 H 63.183447 c -8.141697,0 -14.696203,-6.55451 -14.696203,-14.69621 v -39.64557 c 0,-8.14169 6.554506,-14.6962 14.696203,-14.6962 z" /><g
           id="g33"
           clip-path="url(#clipPath19)"><g
             id="g32"><path
               id="path32"
               style="fill:none;stroke:none;stroke-width:0.286;stroke-dasharray:none;stroke-opacity:1"
               d="m 63.183447,130.68415 h 63.056943 c 8.1417,0 14.6962,6.55451 14.6962,14.6962 v 39.64557 c 0,8.1417 -6.5545,14.69621 -14.6962,14.69621 H 63.183447 c -8.141697,0 -14.696203,-6.55451 -14.696203,-14.69621 v -39.64557 c 0,-8.14169 6.554506,-14.6962 14.696203,-14.6962 z" /></g><path
             id="path33"
             style="fill:none;fill-opacity:1;stroke:url(#linearGradient34);stroke-width:3.5;stroke-dasharray:none;filter:url(#filter21)"
             d="m 63.183447,130.68415 h 63.056943 c 8.1417,0 14.6962,6.55451 14.6962,14.6962 v 39.64557 c 0,8.1417 -6.5545,14.69621 -14.6962,14.69621 H 63.183447 c -8.141697,0 -14.696203,-6.55451 -14.696203,-14.69621 v -39.64557 c 0,-8.14169 6.554506,-14.6962 14.696203,-14.6962 z" /></g></g><path
         d="m 115.15035,170.14287 v -5.02399 c 0,-8.14169 -6.55456,-14.69626 -14.69626,-14.69626 H 37.397476 c -8.14169,0 -14.69626,6.55457 -14.69626,14.69626 v 30.52217 a 73.104996,40.842129 0 0 0 23.27869,2.12597 73.104996,40.842129 0 0 0 69.170444,-27.62415 z"
         style="display:inline;mix-blend-mode:overlay;fill:#b1b1b1;fill-opacity:0.226061;stroke-width:0.275391"
         id="path34" /></g></g></svg>
