<?xml version="1.0" encoding="UTF-8" standalone="no"?>
<!-- Created with Inkscape (http://www.inkscape.org/) -->

<svg
   width="106.18524mm"
   height="81.938957mm"
   viewBox="0 0 106.18524 81.938957"
   version="1.1"
   id="svg1"
   xml:space="preserve"
   xmlns:xlink="http://www.w3.org/1999/xlink"
   xmlns="http://www.w3.org/2000/svg"
   xmlns:svg="http://www.w3.org/2000/svg"><defs
     id="defs1"><linearGradient
       id="swatch20"><stop
         style="stop-color:#048baa;stop-opacity:1;"
         offset="0"
         id="stop20" /><stop
         style="stop-color:#3afff5;stop-opacity:1;"
         offset="0.74185163"
         id="stop21" /></linearGradient><linearGradient
       id="swatch19"><stop
         style="stop-color:#ffffff;stop-opacity:1;"
         offset="0"
         id="stop19" /></linearGradient><filter
       style="color-interpolation-filters:sRGB"
       id="filter15"
       x="-0.05451302"
       y="-0.072998849"
       width="1.109026"
       height="1.1459977"><feGaussianBlur
         stdDeviation="2.099872"
         id="feGaussianBlur15" /></filter><clipPath
       clipPathUnits="userSpaceOnUse"
       id="clipPath19"><use
         x="0"
         y="0"
         xlink:href="#g18"
         id="use19" /></clipPath><linearGradient
       xlink:href="#swatch20"
       id="linearGradient21"
       gradientUnits="userSpaceOnUse"
       x1="94.711906"
       y1="116.51711"
       x2="94.711914"
       y2="213.88919" /><filter
       style="color-interpolation-filters:sRGB"
       id="filter21"
       x="-0.063866206"
       y="-0.08552378"
       width="1.1277324"
       height="1.1710476"><feGaussianBlur
         stdDeviation="1.7309954"
         id="feGaussianBlur21" /></filter></defs><g
     id="layer1"
     transform="translate(-41.917516,-127.7527)"><g
       id="g35"
       transform="translate(6.6989067,28.284161)"><g
         id="g21"
         transform="translate(-6.4006817,-24.765116)"><path
           id="path15"
           style="mix-blend-mode:normal;fill:#000000;fill-opacity:0.382438;stroke:none;stroke-width:0.286;stroke-dasharray:none;filter:url(#filter15)"
           d="m 63.183447,130.68415 h 63.056943 c 8.1417,0 14.6962,6.55451 14.6962,14.6962 v 39.64557 c 0,8.1417 -6.5545,14.69621 -14.6962,14.69621 H 63.183447 c -8.141697,0 -14.696203,-6.55451 -14.696203,-14.69621 v -39.64557 c 0,-8.14169 6.554506,-14.6962 14.696203,-14.6962 z"
           transform="matrix(1.0356634,0,0,1.0356634,-3.3777477,-5.8917033)" /><path
           id="rect1"
           style="fill:#04c3cf;stroke-width:0.286;stroke-dasharray:none"
           d="m 63.183447,130.68415 h 63.056943 c 8.1417,0 14.6962,6.55451 14.6962,14.6962 v 39.64557 c 0,8.1417 -6.5545,14.69621 -14.6962,14.69621 H 63.183447 c -8.141697,0 -14.696203,-6.55451 -14.696203,-14.69621 v -39.64557 c 0,-8.14169 6.554506,-14.6962 14.696203,-14.6962 z" /><g
           id="g19"
           clip-path="url(#clipPath19)"><g
             id="g18"><path
               id="path17"
               style="fill:none;stroke:none;stroke-width:0.286;stroke-dasharray:none;stroke-opacity:1"
               d="m 63.183447,130.68415 h 63.056943 c 8.1417,0 14.6962,6.55451 14.6962,14.6962 v 39.64557 c 0,8.1417 -6.5545,14.69621 -14.6962,14.69621 H 63.183447 c -8.141697,0 -14.696203,-6.55451 -14.696203,-14.69621 v -39.64557 c 0,-8.14169 6.554506,-14.6962 14.696203,-14.6962 z" /></g><path
             id="path16"
             style="fill:none;fill-opacity:1;stroke:url(#linearGradient21);stroke-width:3.5;stroke-dasharray:none;filter:url(#filter21)"
             d="m 63.183447,130.68415 h 63.056943 c 8.1417,0 14.6962,6.55451 14.6962,14.6962 v 39.64557 c 0,8.1417 -6.5545,14.69621 -14.6962,14.69621 H 63.183447 c -8.141697,0 -14.696203,-6.55451 -14.696203,-14.69621 v -39.64557 c 0,-8.14169 6.554506,-14.6962 14.696203,-14.6962 z" /></g></g><path
         d="m 134.53589,125.63916 v -5.02399 c 0,-8.14169 -6.55456,-14.69626 -14.69626,-14.69626 H 56.78301 c -8.14169,0 -14.69626,6.55457 -14.69626,14.69626 v 30.52217 a 73.104996,40.842129 0 0 0 23.27869,2.12597 73.104996,40.842129 0 0 0 69.17045,-27.62415 z"
         style="display:inline;mix-blend-mode:overlay;fill:#ffffff;fill-opacity:0.226061;stroke-width:0.275391"
         id="path29" /></g></g></svg>
